<?xml version='1.0' encoding='iso-8859-1'?>
<svg version="1.1" xmlns="http://www.w3.org/2000/svg" viewBox="0 0 314.962 314.962" xmlns:xlink="http://www.w3.org/1999/xlink" enable-background="new 0 0 314.962 314.962">
  <g>
    <g>
      <path d="m307.132,137.47c-27.842-27.842-83.526-74.825-149.65-74.825s-121.809,46.983-149.651,74.825c-10.441,10.441-10.441,29.582 1.15463e-14,40.023 27.842,27.842 83.526,74.825 149.65,74.825s121.808-46.983 149.65-74.825c10.441-10.441 10.441-29.582 0.001-40.023zm-12.181,26.102c-20.882,20.882-74.825,69.605-137.469,69.605s-116.589-48.724-137.47-69.605c-5.22-3.48-5.22-10.441 0-15.661 20.882-20.882 74.825-69.605 137.469-69.605s116.588,48.723 137.469,69.605c5.221,3.48 5.221,10.44 0.001,15.661z"/>
      <path d="m157.481,113.108c-24.362,0-43.503,19.141-43.503,43.503s19.141,43.503 43.503,43.503 43.503-19.141 43.503-43.503-19.141-43.503-43.503-43.503zm0,69.605c-13.921,0-26.102-12.181-26.102-26.102 0-13.921 12.181-26.102 26.102-26.102 13.921,0 26.102,12.181 26.102,26.102 0,13.922-12.181,26.102-26.102,26.102z"/>
    </g>
  </g>
</svg>
