<?xml version="1.0" encoding="iso-8859-1"?>
<!-- Generator: Adobe Illustrator 19.1.0, SVG Export Plug-In . SVG Version: 6.00 Build 0)  -->
<svg version="1.1" id="Capa_1" xmlns="http://www.w3.org/2000/svg" xmlns:xlink="http://www.w3.org/1999/xlink" x="0px" y="0px"
	 viewBox="0 0 64.48 64.48" style="enable-background:new 0 0 64.48 64.48;" xml:space="preserve">
<g>
	<g>
		<path d="M17.595,45.47l-9.062,9.063l1.414,1.414l9.727-9.727c3.687,1.224,7.877,2.02,12.566,2.02
			c20.273,0,31.345-14.779,31.807-15.409l0.433-0.591l-0.434-0.591c-0.334-0.456-6.236-8.328-17.162-12.639l9.062-9.063
			l-1.414-1.414l-9.727,9.727c-3.686-1.224-7.876-2.02-12.565-2.02c-20.273,0-31.345,14.779-31.807,15.409L0,32.24l0.434,0.591
			C0.767,33.287,6.67,41.159,17.595,45.47z M61.959,32.24c-2.285,2.735-12.736,14-29.719,14c-4.024,0-7.678-0.637-10.947-1.639
			l6.05-6.049c1.354,1.054,3.051,1.688,4.897,1.688c4.411,0,8-3.589,8-8c0-1.846-0.635-3.542-1.688-4.897l6.749-6.749
			C54.584,24.049,60.335,30.296,61.959,32.24z M26.24,32.24c0-3.309,2.691-6,6-6c1.294,0,2.49,0.416,3.471,1.115l-8.355,8.356
			C26.656,34.73,26.24,33.534,26.24,32.24z M38.24,32.24c0,3.309-2.691,6-6,6c-1.294,0-2.49-0.416-3.471-1.115l8.355-8.356
			C37.824,29.75,38.24,30.946,38.24,32.24z M32.24,18.24c4.024,0,7.678,0.637,10.947,1.639l-6.05,6.049
			c-1.354-1.054-3.051-1.688-4.897-1.688c-4.411,0-8,3.589-8,8c0,1.846,0.635,3.542,1.688,4.897l-6.749,6.749
			C9.896,40.431,4.145,34.184,2.521,32.24C4.806,29.505,15.257,18.24,32.24,18.24z"/>
	</g>
</g>
<g>
</g>
<g>
</g>
<g>
</g>
<g>
</g>
<g>
</g>
<g>
</g>
<g>
</g>
<g>
</g>
<g>
</g>
<g>
</g>
<g>
</g>
<g>
</g>
<g>
</g>
<g>
</g>
<g>
</g>
</svg>
